<?xml version="1.0" encoding="UTF-8" standalone="no"?>
<!DOCTYPE svg PUBLIC "-//W3C//DTD SVG 20010904//EN"
              "http://www.w3.org/TR/2001/REC-SVG-20010904/DTD/svg10.dtd">

<svg xmlns="http://www.w3.org/2000/svg"
     width="12.4633in" height="2.67333in"
     viewBox="0 0 3739 802">
  <path id="ARCH logo"
        fill="#01D7DE"
        d="M 722.04,127.02
           C 292.06,214.01 220.77,792.87 220.77,792.87
             220.77,792.87 80.01,792.87 80.01,792.87
             80.01,792.87 152.22,77.42 722.04,7.50
             722.04,7.50 722.05,127.07 722.04,127.02 Z" />
  <path id="OPEN logo"
        fill="#FFAB00"
        d="M 118.28,683.72M 401.00,401.00M 700.70,136.19
           C 767.56,210.70 801.00,298.99 801.00,401.05
             801.00,511.35 761.90,605.57 683.72,683.72
             605.57,761.91 511.33,801.00 401.00,801.00
             341.38,801.00 286.46,789.58 236.22,766.74
             234.74,766.07 233.27,765.39 231.80,764.70
             231.80,764.70 282.39,656.03 282.39,656.03
             318.42,672.93 357.96,681.39 401.00,681.39
             478.44,681.39 544.56,654.00 599.37,599.22
             654.18,544.45 681.59,478.38 681.59,401.00
             681.59,329.40 658.13,267.47 611.23,215.23
             611.23,215.23 700.70,136.19 700.70,136.19 Z
           M 418.36,121.08
           C 412.64,120.77 406.85,120.61 401.00,120.61
             323.52,120.61 257.40,147.99 202.63,202.73
             147.81,257.50 120.41,323.60 120.41,401.00
             120.41,438.78 126.94,473.87 140.01,506.27
             140.87,508.38 141.75,510.49 142.66,512.58
             142.81,512.92 32.72,560.10 32.72,560.10
             31.49,557.27 30.29,554.42 29.14,551.56
             10.38,505.25 1.00,455.08 1.00,401.05
             1.00,290.68 40.09,196.43 118.28,118.28
             196.45,40.10 290.70,1.00 401.00,1.00
             409.28,1.00 417.47,1.22 425.58,1.66
             425.58,1.66 418.36,121.08 418.36,121.08 Z
           M 683.72,118.28" />
  <path id="ARCH letters"
        fill="#01D7DE"
        d="M 2825.20,609.28
           C 2825.20,609.28 2887.75,609.28 2887.75,609.28
             2887.75,609.28 2887.75,435.90 2887.75,435.90
             2887.75,435.90 2957.93,435.90 2957.93,435.90
             2957.93,435.90 3047.65,609.28 3047.65,609.28
             3047.65,609.28 3117.95,609.28 3117.95,609.28
             3117.95,609.28 3023.25,426.24 3023.25,426.24
             3044.68,417.02 3062.00,402.62 3075.20,383.07
             3088.78,363.12 3095.56,341.06 3095.56,316.87
             3095.56,283.87 3083.89,255.76 3060.56,232.55
             3037.39,209.13 3009.45,197.42 2976.75,197.42
             2976.75,197.42 2825.20,197.42 2825.20,197.42
             2825.20,197.42 2825.18,260.21 2825.18,260.21
             2825.18,260.21 2976.86,260.07 2976.86,260.07
             2992.33,260.07 3005.60,265.63 3016.67,276.74
             3027.57,287.83 3033.02,301.22 3033.02,316.93
             3033.02,332.46 3027.57,345.66 3016.67,356.56
             3005.60,367.68 2992.33,373.25 2976.86,373.25
             2976.86,373.25 2825.20,373.29 2825.20,373.29
             2825.20,373.29 2825.20,609.28 2825.20,609.28 Z
           M 3334.58,548.70
           C 3293.97,548.70 3259.32,534.31 3230.61,505.53
             3201.90,476.73 3187.55,441.99 3187.55,401.30
             3187.55,360.62 3201.90,325.87 3230.61,297.07
             3259.32,268.11 3293.97,253.63 3334.58,253.63
             3359.45,253.63 3382.71,259.59 3404.36,271.49
             3404.36,271.49 3404.36,202.82 3404.36,202.82
             3381.77,194.93 3358.51,190.98 3334.58,190.98
             3276.78,190.98 3227.40,211.52 3186.43,252.60
             3145.48,293.68 3125.00,343.21 3125.00,401.19
             3125.00,459.15 3145.48,508.66 3186.43,549.74
             3227.40,590.82 3276.78,611.35 3334.58,611.35
             3358.51,611.35 3381.77,607.33 3404.36,599.27
             3404.36,599.27 3404.36,531.13 3404.36,531.13
             3382.71,542.84 3359.45,548.70 3334.58,548.70 Z
           M 3675.69,197.42
           C 3675.69,197.42 3675.69,371.17 3675.69,371.17
             3675.69,371.17 3509.50,371.17 3509.50,371.17
             3509.50,371.17 3509.50,197.42 3509.50,197.42
             3509.50,197.42 3446.95,197.42 3446.95,197.42
             3446.95,197.42 3446.95,607.95 3446.95,607.95
             3446.95,607.95 3509.50,607.95 3509.50,607.95
             3509.50,607.95 3509.50,433.82 3509.50,433.82
             3509.50,433.82 3675.69,433.82 3675.69,433.82
             3675.69,433.82 3675.69,607.95 3675.69,607.95
             3675.69,607.95 3738.23,607.95 3738.23,607.95
             3738.23,607.95 3738.23,197.42 3738.23,197.42
             3738.23,197.42 3675.69,197.42 3675.69,197.42 Z
           M 2706.42,280.86
           C 2536.19,363.20 2505.94,608.80 2505.94,608.80
             2505.94,608.80 2432.21,608.80 2432.21,608.80
             2432.21,608.80 2470.03,234.04 2768.51,197.42
             2768.51,197.42 2768.51,608.80 2768.51,608.80
             2768.51,608.80 2705.96,608.80 2705.96,608.80
             2705.96,608.80 2706.42,280.87 2706.42,280.86 Z" />
  <path id="OPEN letters"
        fill="#FFAB00"
        d="M 1120.08,548.81M 1268.17,400.72M 1425.15,262.01
           C 1460.17,301.04 1477.69,347.28 1477.69,400.74
             1477.69,458.52 1457.21,507.87 1416.26,548.81
             1375.32,589.76 1325.96,610.24 1268.17,610.24
             1236.94,610.24 1208.17,604.26 1181.85,592.29
             1181.08,591.94 1180.31,591.58 1179.54,591.22
             1179.54,591.22 1206.04,534.30 1206.04,534.30
             1224.91,543.16 1245.62,547.58 1268.17,547.58
             1308.73,547.58 1343.36,533.24 1372.08,504.54
             1400.78,475.85 1415.14,441.25 1415.14,400.72
             1415.14,363.21 1402.85,330.77 1378.28,303.41
             1378.28,303.41 1425.15,262.01 1425.15,262.01 Z
           M 1277.26,254.09
           C 1274.26,253.93 1271.23,253.85 1268.17,253.85
             1227.58,253.85 1192.95,268.19 1164.26,296.86
             1135.55,325.55 1121.19,360.17 1121.19,400.72
             1121.19,420.51 1124.62,438.89 1131.46,455.86
             1131.91,456.96 1132.37,458.07 1132.85,459.16
             1132.92,459.34 1075.26,484.06 1075.26,484.06
             1074.62,482.57 1073.99,481.08 1073.38,479.58
             1063.56,455.32 1058.65,429.04 1058.65,400.74
             1058.65,342.93 1079.12,293.56 1120.08,252.62
             1161.02,211.68 1210.39,191.19 1268.17,191.19
             1272.51,191.19 1276.80,191.31 1281.04,191.54
             1281.04,191.54 1277.26,254.09 1277.26,254.09 Z
           M 1416.26,252.62M 1516.87,372.18
           C 1516.87,372.19 1516.87,608.16 1516.87,608.16
             1516.87,608.16 1579.41,608.16 1579.41,608.16
             1579.41,608.16 1579.41,434.78 1579.41,434.78
             1579.41,434.78 1668.58,434.78 1668.58,434.78
             1701.24,434.78 1729.14,423.17 1752.26,399.92
             1775.57,376.71 1787.23,348.68 1787.23,315.84
             1787.23,282.82 1775.56,254.69 1752.23,231.46
             1729.06,208.03 1701.12,196.30 1668.42,196.30
             1668.42,196.30 1516.87,196.30 1516.87,196.30
             1516.87,196.30 1516.87,258.60 1516.87,258.60
             1516.87,258.60 1668.53,258.96 1668.53,258.96
             1684.00,258.96 1697.27,264.51 1708.34,275.62
             1719.24,286.71 1724.68,300.11 1724.68,315.81
             1724.68,331.34 1719.24,344.55 1708.34,355.44
             1697.27,366.57 1684.00,372.13 1668.53,372.13
             1668.53,372.13 1516.87,372.18 1516.87,372.18 Z
           M 1826.89,196.30
           C 1826.89,196.30 1826.89,608.16 1826.89,608.16
             1826.89,608.16 2036.41,608.16 2036.41,608.16
             2036.41,608.16 2036.41,545.51 2036.41,545.51
             2036.41,545.51 1889.44,545.51 1889.44,545.51
             1889.44,545.51 1889.44,433.08 1889.44,433.08
             1889.44,433.08 2003.20,433.08 2003.20,433.08
             2003.20,433.08 2003.20,370.43 2003.20,370.43
             2003.20,370.43 1889.44,370.43 1889.44,370.43
             1889.44,370.43 1889.44,258.96 1889.44,258.96
             1889.44,258.96 2036.41,258.96 2036.41,258.96
             2036.41,258.96 2036.41,196.30 2036.41,196.30
             2036.41,196.30 1826.89,196.30 1826.89,196.30 Z
           M 2312.85,196.30
           C 2312.85,196.30 2312.85,489.77 2312.85,489.77
             2312.85,489.77 2137.61,196.30 2137.61,196.30
             2137.61,196.30 2072.18,196.30 2072.18,196.30
             2072.18,196.30 2072.18,606.83 2072.18,606.83
             2072.18,606.83 2134.73,606.83 2134.73,606.83
             2134.73,606.83 2134.73,313.36 2134.73,313.36
             2134.73,313.36 2310.26,606.83 2310.26,606.83
             2310.26,606.83 2375.39,606.83 2375.39,606.83
             2375.39,606.83 2375.39,196.30 2375.39,196.30
             2375.39,196.30 2312.85,196.30 2312.85,196.30 Z" />
</svg>
